<?xml version="1.0" encoding="UTF-8"?>
<svg xmlns="http://www.w3.org/2000/svg"
     xmlns:xlink="http://www.w3.org/1999/xlink"
     xmlns:gadfly="http://www.gadflyjl.org/ns"
     version="1.2"
     width="203.2mm" height="127mm" viewBox="0 0 203.2 127"
     stroke="none"
     fill="#000000"
     stroke-width="0.3"
     font-size="3.88"
>
<g class="plotroot xscalable yscalable" id="img-837297f6-1">
  <g font-size="3.88" font-family="'PT Sans','Helvetica Neue','Helvetica',sans-serif" fill="#564A55" stroke="#000000" stroke-opacity="0.000" id="img-837297f6-2">
    <text x="104.55" y="115.39" text-anchor="middle" dy="0.6em">x</text>
  </g>
  <g class="guide xlabels" font-size="2.82" font-family="'PT Sans Caption','Helvetica Neue','Helvetica',sans-serif" fill="#6C606B" id="img-837297f6-3">
    <text x="21.75" y="108.72" text-anchor="middle" dy="0.6em">0</text>
    <text x="54.87" y="108.72" text-anchor="middle" dy="0.6em">5</text>
    <text x="87.99" y="108.72" text-anchor="middle" dy="0.6em">10</text>
    <text x="121.12" y="108.72" text-anchor="middle" dy="0.6em">15</text>
    <text x="154.24" y="108.72" text-anchor="middle" dy="0.6em">20</text>
    <text x="187.36" y="108.72" text-anchor="middle" dy="0.6em">25</text>
  </g>
  <g class="guide colorkey" id="img-837297f6-4">
    <g fill="#4C404B" font-size="2.82" font-family="'PT Sans','Helvetica Neue','Helvetica',sans-serif" id="img-837297f6-5">
      <text x="193.83" y="56.36" dy="0.35em" id="img-837297f6-6" class="color_f1">f<tspan style="dominant-baseline:inherit" dy="0.6em" font-size="83%">1</tspan><tspan dy="-0.498000em"></tspan></text>
      <text x="193.83" y="61.3" dy="0.35em" id="img-837297f6-7" class="color_f2">f<tspan style="dominant-baseline:inherit" dy="0.6em" font-size="83%">2</tspan><tspan dy="-0.498000em"></tspan></text>
    </g>
    <g stroke="#000000" stroke-opacity="0.000" id="img-837297f6-8">
      <rect x="190.36" y="55.12" width="2.47" height="2.47" id="img-837297f6-9" class="color_f1" fill="#00BFFF"/>
      <rect x="190.36" y="60.06" width="2.47" height="2.47" id="img-837297f6-10" class="color_f2" fill="#D4CA3A"/>
    </g>
    <g fill="#362A35" font-size="3.88" font-family="'PT Sans','Helvetica Neue','Helvetica',sans-serif" stroke="#000000" stroke-opacity="0.000" id="img-837297f6-11">
      <text x="190.36" y="51.22" id="img-837297f6-12">Color</text>
    </g>
  </g>
<g clip-path="url(#img-837297f6-13)">
  <g id="img-837297f6-14">
    <g pointer-events="visible" opacity="1" fill="#000000" fill-opacity="0.000" stroke="#000000" stroke-opacity="0.000" class="guide background" id="img-837297f6-15">
      <rect x="19.75" y="5" width="169.62" height="102.72" id="img-837297f6-16"/>
    </g>
    <g class="guide ygridlines xfixed" stroke-dasharray="0.5,0.5" stroke-width="0.2" stroke="#D0D0E0" id="img-837297f6-17">
      <path fill="none" d="M19.75,105.72 L 189.36 105.72" id="img-837297f6-18"/>
      <path fill="none" d="M19.75,81.04 L 189.36 81.04" id="img-837297f6-19"/>
      <path fill="none" d="M19.75,56.36 L 189.36 56.36" id="img-837297f6-20"/>
      <path fill="none" d="M19.75,31.68 L 189.36 31.68" id="img-837297f6-21"/>
      <path fill="none" d="M19.75,7 L 189.36 7" id="img-837297f6-22"/>
    </g>
    <g class="guide xgridlines yfixed" stroke-dasharray="0.5,0.5" stroke-width="0.2" stroke="#D0D0E0" id="img-837297f6-23">
      <path fill="none" d="M21.75,5 L 21.75 107.72" id="img-837297f6-24"/>
      <path fill="none" d="M54.87,5 L 54.87 107.72" id="img-837297f6-25"/>
      <path fill="none" d="M87.99,5 L 87.99 107.72" id="img-837297f6-26"/>
      <path fill="none" d="M121.12,5 L 121.12 107.72" id="img-837297f6-27"/>
      <path fill="none" d="M154.24,5 L 154.24 107.72" id="img-837297f6-28"/>
      <path fill="none" d="M187.36,5 L 187.36 107.72" id="img-837297f6-29"/>
    </g>
    <g class="plotpanel" id="img-837297f6-30">
      <g stroke-width="0.3" fill="#000000" fill-opacity="0.000" stroke-dasharray="none" id="img-837297f6-31">
        <path fill="none" d="M21.75,56.36 L 22.41 51.41 23.08 46.51 23.74 41.71 24.41 37.06 25.07 32.61 25.74 28.39 26.4 24.45 27.07 20.84 27.73 17.58 28.4 14.72 29.06 12.27 29.73 10.27 30.39 8.73 31.06 7.67 31.72 7.1 32.39 7.03 33.05 7.46 33.72 8.37 34.38 9.77 35.05 11.64 35.71 13.96 36.38 16.71 37.04 19.86 37.71 23.37 38.37 27.22 39.04 31.36 39.7 35.75 40.37 40.35 41.03 45.11 41.7 49.98 42.36 54.92 43.03 59.87 43.69 64.79 44.36 69.62 45.02 74.32 45.69 78.84 46.35 83.13 47.02 87.15 47.69 90.86 48.35 94.22 49.02 97.21 49.68 99.78 50.35 101.91 51.01 103.59 51.68 104.79 52.34 105.5 53.01 105.71 53.67 105.43 54.34 104.66 55 103.4 55.67 101.66 56.33 99.47 57 96.84 57.66 93.81 58.33 90.4 58.99 86.65 59.66 82.59 60.32 78.26 60.99 73.72 61.65 69 62.32 64.16 62.98 59.23 63.65 54.28 64.31 49.35 64.98 44.49 65.64 39.74 66.31 35.17 66.97 30.81 67.64 26.7 68.3 22.9 68.97 19.43 69.63 16.33 70.3 13.64 70.96 11.38 71.63 9.57 72.3 8.23 72.96 7.37 73.63 7.01 74.29 7.15 74.96 7.78 75.62 8.9 76.29 10.5 76.95 12.56 77.62 15.07 78.28 17.98 78.95 21.29 79.61 24.95 80.28 28.92 80.94 33.17 81.61 37.65 82.27 42.33 82.94 47.14 83.6 52.05 84.27 57 84.93 61.94 85.6 66.83 86.26 71.61 86.93 76.24 87.59 80.67 88.26 84.85 88.92 88.75 89.59 92.32 90.25 95.52 90.92 98.34 91.58 100.73 92.25 102.67 92.91 104.15 93.58 105.14 94.24 105.65 94.91 105.66 95.57 105.17 96.24 104.19 96.91 102.73 97.57 100.8 98.24 98.42 98.9 95.62 99.57 92.42 100.23 88.87 100.9 84.98 101.56 80.8 102.23 76.38 102.89 71.76 103.56 66.98 104.22 62.1 104.89 57.16 105.55 52.2 106.22 47.3 106.88 42.48 107.55 37.8 108.21 33.31 108.88 29.05 109.54 25.07 110.21 21.4 110.87 18.08 111.54 15.15 112.2 12.64 112.87 10.56 113.53 8.95 114.2 7.81 114.86 7.16 115.53 7.01 116.19 7.35 116.86 8.19 117.52 9.52 118.19 11.31 118.85 13.56 119.52 16.24 120.18 19.32 120.85 22.78 121.52 26.58 122.18 30.67 122.85 35.03 123.51 39.59 124.18 44.33 124.84 49.19 125.51 54.12 126.17 59.08 126.84 64 127.5 68.85 128.17 73.57 128.83 78.12 129.5 82.45 130.16 86.52 130.83 90.29 131.49 93.71 132.16 96.75 132.82 99.39 133.49 101.6 134.15 103.35 134.82 104.63 135.48 105.42 136.15 105.71 136.81 105.51 137.48 104.82 138.14 103.63 138.81 101.97 139.47 99.85 140.14 97.3 140.8 94.33 141.47 90.97 142.13 87.27 142.8 83.26 143.46 78.98 144.13 74.47 144.79 69.77 145.46 64.94 146.13 60.03 146.79 55.08 147.46 50.14 148.12 45.26 148.79 40.5 149.45 35.89 150.12 31.49 150.78 27.34 151.45 23.49 152.11 19.96 152.78 16.8 153.44 14.04 154.11 11.71 154.77 9.83 155.44 8.41 156.1 7.48 156.77 7.04 157.43 7.09 158.1 7.65 158.76 8.69 159.43 10.21 160.09 12.2 160.76 14.63 161.42 17.49 162.09 20.73 162.75 24.33 163.42 28.26 164.08 32.47 164.75 36.92 165.41 41.56 166.08 46.36 166.74 51.25 167.41 56.2 168.07 61.15 168.74 66.05 169.4 70.85 170.07 75.51 170.73 79.97 171.4 84.19 172.07 88.14 172.73 91.76 173.4 95.03 174.06 97.91 174.73 100.37 175.39 102.39 176.06 103.94 176.72 105.02 177.39 105.6 178.05 105.69 178.72 105.28 179.38 104.38 180.05 102.99 180.71 101.14 181.38 98.83 182.04 96.1 182.71 92.96 183.37 89.46 184.04 85.63 184.7 81.49 185.37 77.11 186.03 72.52 186.7 67.76 187.36 62.89" id="img-837297f6-32" class="geometry color_f1" stroke="#00BFFF"/>
        <path fill="none" d="M21.75,7 L 22.41 7.25 23.08 7.99 23.74 9.22 24.41 10.93 25.07 13.09 25.74 15.69 26.4 18.7 27.07 22.08 27.73 25.82 28.4 29.86 29.06 34.16 29.73 38.69 30.39 43.4 31.06 48.24 31.72 53.16 32.39 58.12 33.05 63.05 33.72 67.92 34.38 72.67 35.05 77.26 35.71 81.63 36.38 85.76 37.04 89.58 37.71 93.07 38.37 96.19 39.04 98.91 39.7 101.21 40.37 103.05 41.03 104.42 41.7 105.3 42.36 105.69 43.03 105.59 43.69 104.99 44.36 103.9 45.02 102.33 45.69 100.3 46.35 97.82 47.02 94.93 47.69 91.65 48.35 88.02 49.02 84.06 49.68 79.83 50.35 75.36 51.01 70.69 51.68 65.89 52.34 60.99 53.01 56.04 53.67 51.09 54.34 46.2 55 41.41 55.67 36.77 56.33 32.33 57 28.13 57.66 24.21 58.33 20.62 58.99 17.39 59.66 14.55 60.32 12.13 60.99 10.16 61.65 8.65 62.32 7.62 62.98 7.08 63.65 7.04 64.31 7.5 64.98 8.45 65.64 9.88 66.31 11.78 66.97 14.13 67.64 16.9 68.3 20.07 68.97 23.61 69.63 27.48 70.3 31.63 70.96 36.04 71.63 40.65 72.3 45.42 72.96 50.3 73.63 55.24 74.29 60.19 74.96 65.1 75.62 69.93 76.29 74.62 76.95 79.12 77.62 83.4 78.28 87.4 78.95 91.09 79.61 94.43 80.28 97.39 80.94 99.93 81.61 102.03 82.27 103.68 82.94 104.85 83.6 105.53 84.27 105.71 84.93 105.4 85.6 104.59 86.26 103.3 86.93 101.53 87.59 99.31 88.26 96.66 88.92 93.6 89.59 90.17 90.25 86.39 90.92 82.32 91.58 77.98 92.25 73.42 92.91 68.69 93.58 63.84 94.24 58.91 94.91 53.96 95.57 49.03 96.24 44.17 96.91 39.44 97.57 34.88 98.24 30.53 98.9 26.45 99.57 22.66 100.23 19.22 100.9 16.15 101.56 13.48 102.23 11.25 102.89 9.47 103.56 8.16 104.22 7.33 104.89 7.01 105.55 7.17 106.22 7.84 106.88 8.99 107.55 10.62 108.21 12.71 108.88 15.24 109.54 18.19 110.21 21.51 110.87 25.19 111.54 29.19 112.2 33.45 112.87 37.95 113.53 42.63 114.2 47.46 114.86 52.37 115.53 57.32 116.19 62.26 116.86 67.14 117.52 71.91 118.19 76.53 118.85 80.95 119.52 85.11 120.18 88.99 120.85 92.53 121.52 95.72 122.18 98.5 122.85 100.87 123.51 102.78 124.18 104.23 124.84 105.19 125.51 105.66 126.17 105.64 126.84 105.12 127.5 104.11 128.17 102.62 128.83 100.66 129.5 98.25 130.16 95.43 130.83 92.2 131.49 88.62 132.16 84.72 132.82 80.53 133.49 76.09 134.15 71.46 134.82 66.67 135.48 61.78 136.15 56.84 136.81 51.89 137.48 46.98 138.14 42.17 138.81 37.5 139.47 33.03 140.14 28.79 140.8 24.82 141.47 21.17 142.13 17.88 142.8 14.98 143.46 12.49 144.13 10.44 144.79 8.86 145.46 7.75 146.13 7.14 146.79 7.02 147.46 7.39 148.12 8.26 148.79 9.62 149.45 11.44 150.12 13.72 150.78 16.43 151.45 19.54 152.11 23.02 152.78 26.83 153.44 30.95 154.11 35.31 154.77 39.9 155.44 44.64 156.1 49.51 156.77 54.44 157.43 59.39 158.1 64.32 158.76 69.16 159.43 73.87 160.09 78.41 160.76 82.73 161.42 86.77 162.09 90.52 162.75 93.92 163.42 96.94 164.08 99.55 164.75 101.73 165.41 103.45 166.08 104.69 166.74 105.45 167.41 105.71 168.07 105.48 168.74 104.75 169.4 103.54 170.07 101.85 170.73 99.7 171.4 97.12 172.07 94.12 172.73 90.74 173.4 87.02 174.06 82.99 174.73 78.69 175.39 74.17 176.06 69.46 176.72 64.63 177.39 59.71 178.05 54.76 178.72 49.82 179.38 44.95 180.05 40.19 180.71 35.6 181.38 31.22 182.04 27.09 182.71 23.25 183.37 19.75 184.04 16.61 184.7 13.88 185.37 11.57 186.03 9.72 186.7 8.34 187.36 7.43" id="img-837297f6-33" class="geometry color_f2" stroke="#D4CA3A"/>
      </g>
    </g>
  </g>
</g>
  <g class="guide ylabels" font-size="2.82" font-family="'PT Sans Caption','Helvetica Neue','Helvetica',sans-serif" fill="#6C606B" id="img-837297f6-34">
    <text x="18.74" y="105.72" text-anchor="end" dy="0.35em" id="img-837297f6-35">-1.0</text>
    <text x="18.74" y="81.04" text-anchor="end" dy="0.35em" id="img-837297f6-36">-0.5</text>
    <text x="18.74" y="56.36" text-anchor="end" dy="0.35em" id="img-837297f6-37">0.0</text>
    <text x="18.74" y="31.68" text-anchor="end" dy="0.35em" id="img-837297f6-38">0.5</text>
    <text x="18.74" y="7" text-anchor="end" dy="0.35em" id="img-837297f6-39">1.0</text>
  </g>
  <g font-size="3.88" font-family="'PT Sans','Helvetica Neue','Helvetica',sans-serif" fill="#564A55" stroke="#000000" stroke-opacity="0.000" id="img-837297f6-40">
    <text x="8.81" y="54.36" text-anchor="middle" dy="0.35em" transform="rotate(-90, 8.81, 56.36)" id="img-837297f6-41">f(x)</text>
  </g>
</g>
<defs>
  <clipPath id="img-837297f6-13">
  <path d="M19.75,5 L 189.36 5 189.36 107.72 19.75 107.72" />
</clipPath>
</defs>
</svg>
